<svg width="60" height="80" viewBox="0 0 60 80" fill="none" xmlns="http://www.w3.org/2000/svg">
<path d="M14 73.7778C14 73.7778 14 78 8.5 78C3 78 3 73.7778 3 73.7778V6.22222C3 6.22222 3 2 8.5 2C14 2 14 6.22222 14 6.22222V73.7778Z" fill="#4F5F6A"/>
<path d="M14 71.9444C14 71.9444 14 76 9.5 76C5 76 5 71.9444 5 71.9444V7.05556C5 7.05556 5 3 9.5 3C14 3 14 7.05556 14 7.05556V71.9444Z" fill="#66757F"/>
<path d="M13 44.6111C13 44.6111 13 47 10 47C7 47 7 43 7 43V9C7 9 7.5 4.5 10.5 4.5C13.5 4.5 13 6.38889 13 6.38889V44.6111Z" fill="#273036"/>
<mask id="mask0_12_2" style="mask-type:alpha" maskUnits="userSpaceOnUse" x="8" y="5" width="38" height="41">
<path d="M8 10.6499C8 5.98548 10.8109 3.75927 14.2472 5.7035L42.9865 21.9591C46.4228 23.9033 46.4228 27.0836 42.9865 29.0257L14.2472 45.2813C10.8109 47.2234 8 44.9972 8 40.3327V10.6499Z" fill="#DD2E44"/>
</mask>
<g mask="url(#mask0_12_2)">
<path d="M8 10.6499C8 5.98548 10.8109 3.75927 14.2472 5.7035L42.9865 21.9591C46.4228 23.9033 46.4228 27.0836 42.9865 29.0257L14.2472 45.2813C10.8109 47.2234 8 44.9972 8 40.3327V10.6499Z" fill="#DD2E44"/>
<path d="M13.8552 4.73277C11.4663 3.39028 10.1238 5.7792 12.5127 7.12169L42.3742 23.9028C44.7631 25.2453 46.1056 22.8564 43.7167 21.5139L13.8552 4.73277Z" fill="#FF8484"/>
<path d="M42.3742 27.0329C44.7631 25.6904 46.1056 28.0793 43.7167 29.4218L13.8552 46.2029C11.4663 47.5454 10.1238 45.1565 12.5127 43.814L42.3742 27.0329Z" fill="#C1283C"/>
</g>
<mask id="mask1_12_2" style="mask-type:alpha" maskUnits="userSpaceOnUse" x="18" y="43" width="35" height="35">
<circle cx="35.5" cy="60.5" r="17.5" fill="#C4C4C4"/>
</mask>
<g mask="url(#mask1_12_2)">
<g filter="url(#filter0_i_12_2)">
<circle cx="35.5" cy="60.5" r="17.5" fill="#080808"/>
</g>
<path d="M22.1288 54.2826C21.0653 57.4436 20.1217 61.2127 20.9304 64.2137C21.9946 55.8493 29.4826 50.9033 33.1595 48.9266C33.1196 48.4973 33.0931 47.2588 32.2371 46.3891C29.9857 46.9541 23.4582 50.3313 22.1288 54.2826Z" fill="#929292"/>
<path d="M31.9384 51.0159C31.6159 50.4919 29.198 48.5973 28.4373 48.4111C27.953 48.2926 27.13 48.8834 26.3362 49.378C25.2949 50.0267 23.1316 52.4164 22.467 53.7405C22.1238 54.4243 22.1765 54.5841 22.9198 55.1247C24.0282 55.9308 26.0938 56.7839 26.4969 56.6328C26.816 56.1961 27.7363 55.0508 28.8648 53.9625C30.2755 52.6022 31.1323 51.5701 31.9384 51.0159Z" fill="white"/>
<path d="M46.3178 57.5098C46.0064 55.4761 44.8866 53.5462 44.7424 53.2641C44.5982 52.982 45.398 50.9657 45.4725 50.4442C45.547 49.9226 46.6682 50.9846 47.4681 52.1023C48.2676 53.2196 50.0104 56.2217 49.9359 57.8609C49.8614 59.5002 47.0472 61.8373 46.6001 61.6883C46.6001 60.4335 46.6076 59.4022 46.3178 57.5098Z" fill="white"/>
<path d="M41.363 48.3231L36.1648 46.4571C37.5865 46.2571 40.1459 46.045 40.8923 46.205C41.6387 46.3649 44.0731 47.9898 44.9617 48.8562L41.363 48.3231Z" fill="white"/>
</g>
<defs>
<filter id="filter0_i_12_2" x="18" y="35" width="35" height="43" filterUnits="userSpaceOnUse" color-interpolation-filters="sRGB">
<feFlood flood-opacity="0" result="BackgroundImageFix"/>
<feBlend mode="normal" in="SourceGraphic" in2="BackgroundImageFix" result="shape"/>
<feColorMatrix in="SourceAlpha" type="matrix" values="0 0 0 0 0 0 0 0 0 0 0 0 0 0 0 0 0 0 127 0" result="hardAlpha"/>
<feOffset dy="-8"/>
<feGaussianBlur stdDeviation="7"/>
<feComposite in2="hardAlpha" operator="arithmetic" k2="-1" k3="1"/>
<feColorMatrix type="matrix" values="0 0 0 0 0.779167 0 0 0 0 0.779167 0 0 0 0 0.779167 0 0 0 0.3 0"/>
<feBlend mode="normal" in2="shape" result="effect1_innerShadow_12_2"/>
</filter>
</defs>
</svg>
